<?xml version="1.0" encoding="UTF-8" standalone="no"?>
<!-- Created with Inkscape (http://www.inkscape.org/) -->

<svg
   xmlns:dc="http://purl.org/dc/elements/1.1/"
   xmlns:cc="http://creativecommons.org/ns#"
   xmlns:rdf="http://www.w3.org/1999/02/22-rdf-syntax-ns#"
   xmlns:svg="http://www.w3.org/2000/svg"
   xmlns="http://www.w3.org/2000/svg"
   xmlns:sodipodi="http://sodipodi.sourceforge.net/DTD/sodipodi-0.dtd"
   xmlns:inkscape="http://www.inkscape.org/namespaces/inkscape"
   version="1.1"
   id="svg815"
   width="800"
   height="734.65601"
   viewBox="0 0 800 734.65601"
   sodipodi:docname="logo.svg"
   inkscape:version="0.92.3 (2405546, 2018-03-11)">
  <metadata
     id="metadata821">
    <rdf:RDF>
      <cc:Work
         rdf:about="">
        <dc:format>image/svg+xml</dc:format>
        <dc:type
           rdf:resource="http://purl.org/dc/dcmitype/StillImage" />
        <dc:title></dc:title>
      </cc:Work>
    </rdf:RDF>
  </metadata>
  <defs
     id="defs819" />
  <sodipodi:namedview
     pagecolor="#ffffff"
     bordercolor="#666666"
     borderopacity="1"
     objecttolerance="10"
     gridtolerance="10"
     guidetolerance="10"
     inkscape:pageopacity="0"
     inkscape:pageshadow="2"
     inkscape:window-width="1920"
     inkscape:window-height="1001"
     id="namedview817"
     showgrid="false"
     inkscape:zoom="0.44636116"
     inkscape:cx="-323.71278"
     inkscape:cy="962.15117"
     inkscape:window-x="1991"
     inkscape:window-y="-9"
     inkscape:window-maximized="1"
     inkscape:current-layer="svg815" />
  <path
     style="fill:#d8ae6c;fill-opacity:1;stroke-width:1.32009566"
     d="m 222.80162,616.3506 c 5.65537,-11.0716 9.47156,-23.1987 9.47156,-30.0984 0,-6.6055 -3.03428,-17.7085 -6.80405,-24.897 -1.61142,-3.0728 -1.7884,-2.2595 -1.90379,8.7497 -0.11102,10.5889 -0.82177,14.1587 -5.57096,27.9786 -6.72582,19.572 -8.4338,29.5972 -6.53896,38.3813 l 1.40259,6.502 3.5685,-10.5608 c 1.96266,-5.8084 4.83147,-13.0333 6.37511,-16.0554 z"
     id="path949"
     inkscape:connector-curvature="0" />
  <path
     id="path835"
     style="fill:#d8ae6c;fill-opacity:1;stroke-width:1.32009566"
     d="m 588.699,325.29473 c 0,-1.12048 4.78059,-13.26866 10.62356,-26.99595 17.30652,-40.6595 22.79087,-53.75253 24.05841,-57.43569 0.46419,-1.34879 2.98834,-2.42462 6.96888,-2.97021 8.05972,-1.10471 37.03812,-0.82529 42.17522,0.40668 l 3.96028,0.94974 -3.96028,0.92286 c -8.4657,1.97275 -10.38521,2.93203 -13.06611,6.52985 -2.63448,3.53549 -2.79289,5.50815 -3.12743,38.94282 -0.1938,19.37028 -0.65065,36.55528 -1.01522,38.1889 -0.64221,2.87781 -1.15427,2.97021 -16.45859,2.97021 h -15.79575 l -0.35026,-37.95274 -0.35028,-37.95275 -3.11283,6.60048 c -3.46045,7.33751 -6.19115,13.78581 -19.28655,45.54329 -8.89681,21.57557 -11.26305,26.25057 -11.26305,22.25251 z m -153.57112,0.62915 c -0.48404,-0.48403 -0.88007,-17.14674 -0.88007,-37.02824 0,-29.48837 -0.36342,-36.85094 -1.9726,-39.96276 -2.5991,-5.02611 -6.92606,-7.93045 -11.85211,-7.95536 -2.19812,-0.0106 -4.81551,-0.53892 -5.81642,-1.17288 -2.81133,-1.78065 8.45674,-2.6469 30.70174,-2.36025 l 19.64121,0.2531 18.90101,42.90311 c 10.39554,23.59671 18.93276,43.6634 18.97157,44.59267 0.0545,1.30629 -3.73658,1.60574 -16.71242,1.3201 -16.4084,-0.36122 -16.8205,-0.44313 -18.46297,-3.66971 -1.9716,-3.87316 -14.48712,-30.79077 -22.86356,-49.17356 -3.22568,-7.07902 -6.29139,-12.87094 -6.81267,-12.87094 -0.5213,0 -0.9868,14.66174 -1.03448,32.58164 -0.0477,17.9199 -0.27601,32.77098 -0.50742,33.00239 -0.23141,0.23141 -0.81678,0.0247 -1.30081,-0.45931 z m -191.76948,9.33805 c 2.35701,-6.14231 2.28969,-8.10457 -0.30134,-8.78213 -2.51123,-0.65671 -2.63089,-2.11807 -3.06825,-37.4723 -0.56132,-45.37514 -0.41181,-44.92815 -16.29625,-48.7256 l -3.96028,-0.94679 3.30023,-0.92708 c 4.55123,-1.2785 61.63211,-1.5252 67.30616,-0.29088 l 4.60162,1.00102 -7.48596,1.67528 c -6.41692,1.43605 -7.91353,2.37144 -10.47999,6.55019 -2.88842,4.70296 -3.01263,6.1903 -3.52139,42.1676 l -0.52737,37.2927 h -11.0587 -11.0587 l -2.69385,5.28039 c -2.55906,5.01615 -6.46217,7.62396 -4.75593,3.1776 z m 431.14681,33.86303 c 0,-0.68329 0.59404,-1.60933 1.3201,-2.05817 1.81918,-1.12432 1.68854,-22.20511 -0.149,-24.04266 -2.38781,-2.3878 -0.037,-4.34428 4.50584,-3.74997 2.32308,0.3039 4.76137,0.59265 5.41845,0.64165 0.65706,0.049 0.16472,1.22716 -1.09408,2.61813 -1.86538,2.06122 -2.19817,4.44211 -1.79903,12.87093 0.26935,5.68804 0.97376,11.3814 1.56535,12.652 0.93109,1.99981 0.34713,2.31016 -4.34601,2.31016 -2.9819,0 -5.42162,-0.55893 -5.42162,-1.24207 z m -38.28277,0 c 0,-0.68329 0.64951,-1.64366 1.44338,-2.13434 0.9412,-0.58163 1.28566,-5.54601 0.99007,-14.26888 l -0.45331,-13.37689 4.62034,0.45604 c 5.67811,0.56045 6.60997,1.33512 3.61926,3.0088 -1.88347,1.05405 -2.29917,3.17586 -2.29917,11.73542 0,9.29472 0.30908,10.61415 2.79854,11.94639 2.28779,1.22439 3.47434,0.99812 6.50164,-1.2401 3.87167,-2.86239 5.39722,-1.84142 4.192,2.80547 -0.50681,1.95413 -2.20302,2.31016 -11.00595,2.31016 -5.72374,0 -10.4068,-0.55893 -10.4068,-1.24207 z m -38.28277,0 c 0,-0.68329 0.59404,-1.60933 1.32009,-2.05817 1.81919,-1.12432 1.68855,-22.20511 -0.149,-24.04266 -2.32235,-2.32235 -0.26668,-4.06506 4.36528,-3.70068 4.3269,0.34038 6.28671,2.38568 3.77398,3.93863 -0.79537,0.49156 -1.38978,5.62473 -1.38978,12.00183 v 11.14284 h 4.18637 c 2.30249,0 5.27271,-0.98308 6.60047,-2.18468 2.29029,-2.07268 2.41412,-1.97112 2.41412,1.98019 v 4.16477 h -10.56077 c -5.80842,0 -10.56076,-0.55893 -10.56076,-1.24207 z m -42.20108,0.30547 c 0.0231,-0.57398 0.91416,-2.19664 1.98014,-3.60598 2.74812,-3.6333 2.71495,-21.27871 -0.042,-22.33665 -1.08908,-0.41791 -1.98014,-1.55127 -1.98014,-2.51856 0,-1.32144 2.54371,-1.73607 10.23074,-1.66762 10.1365,0.0903 10.23458,0.12435 10.64844,3.69743 0.47674,4.11595 -0.53085,4.51046 -3.84942,1.5072 -3.83648,-3.47197 -7.78909,-1.26572 -7.78909,4.34766 v 4.71081 l 6.07927,-0.83325 c 5.19251,-0.71172 5.96274,-0.52959 5.28039,1.24862 -0.4394,1.14504 -0.7989,2.93806 -0.7989,3.9845 0,1.60146 -0.50837,1.56951 -3.21171,-0.20179 -2.55044,-1.67111 -3.79463,-1.79243 -6.04282,-0.58924 -1.72773,0.92465 -2.53395,2.28951 -2.06867,3.50203 0.41934,1.09278 0.76244,2.76007 0.76244,3.70509 0,2.61562 4.6834,3.27659 8.64682,1.22028 4.62946,-2.40172 4.81154,-2.3538 4.31592,1.13581 -0.39328,2.7693 -1.15896,2.99622 -11.31263,3.3537 -5.98993,0.21082 -10.87189,-0.0858 -10.8488,-0.66004 z m -40.96495,-0.30547 c 0,-0.68329 0.59405,-1.60933 1.3201,-2.05817 1.92796,-1.19151 1.71163,-24.07117 -0.23372,-24.71962 -0.85461,-0.28487 -1.14537,-1.17884 -0.64614,-1.98661 1.11897,-1.81052 14.08978,-1.15025 17.94599,0.91353 3.67697,1.96786 3.74776,10.02383 0.12197,13.88328 -2.60689,2.7749 -2.60609,2.79191 0.33003,6.94181 1.61882,2.28804 3.98289,4.43469 5.25348,4.77026 3.75232,0.99126 2.63685,3.49759 -1.55659,3.49759 -3.11514,0 -4.65477,-1.16749 -7.92058,-6.00654 -4.7934,-7.10247 -4.8172,-7.27405 -1.41362,-10.18828 4.73172,-4.05143 2.04433,-13.10063 -3.28344,-11.05619 -2.8566,1.09618 -2.87091,20.92209 -0.0168,23.29073 3.37507,2.80111 2.21586,3.96028 -3.96029,3.96028 -3.26723,0 -5.94043,-0.55893 -5.94043,-1.24207 z m -29.0421,-16.50124 c 0,-3.85338 -2.03818,-5.53099 -3.16192,-2.60255 -1.35476,3.53047 -0.88927,5.82488 1.18178,5.82488 1.21932,0 1.98014,-1.23811 1.98014,-3.22233 z m -18.48134,16.46969 c 0,-0.70045 1.05973,-1.84075 2.35495,-2.53393 2.04672,-1.09541 7.91887,-12.87135 12.08956,-24.24441 2.68818,-7.33036 5.22109,-4.29052 9.45545,11.34784 1.9967,7.3742 4.01337,12.13461 5.47217,12.91743 4.1745,2.23981 2.42181,3.78669 -4.29031,3.78669 -6.14819,0 -8.37171,-1.38966 -5.28039,-3.30024 0.72606,-0.4487 1.3201,-2.1966 1.3201,-3.88423 0,-4.19608 -5.90492,-5.39188 -9.39435,-1.90244 -2.77486,2.77485 -3.13652,4.56915 -1.16641,5.78667 2.99084,1.84853 0.95832,3.30024 -4.62034,3.30024 -3.26724,0 -5.94043,-0.57305 -5.94043,-1.27362 z M 361.74156,354.16293 c -0.0544,-0.52639 -0.099,-2.14516 -0.099,-3.59726 0,-1.45211 -0.52476,-2.6402 -1.16613,-2.6402 -1.43584,0 -2.93481,5.30493 -1.94945,6.89926 0.81534,1.31925 3.36523,0.7943 3.21459,-0.6618 z m -18.58035,15.03582 c 0,-0.64249 1.43441,-2.10806 3.18755,-3.25681 2.05366,-1.34557 4.683,-5.97808 7.39149,-13.02272 4.2701,-11.10624 6.02963,-14.23442 8.00651,-14.23442 1.09973,0 7.81637,19.73411 7.81637,22.96522 0,0.93908 1.18808,2.7826 2.64019,4.09668 3.97346,3.59594 3.24174,4.62033 -3.30024,4.62033 -6.1877,0 -7.00515,-0.97106 -4.36973,-5.19101 2.12848,-3.40826 -0.55613,-6.61784 -5.12771,-6.13043 -4.7752,0.50912 -7.56998,5.84784 -4.7174,9.01128 1.95746,2.17089 1.67258,2.31016 -4.72195,2.31016 -3.7428,0 -6.80508,-0.52566 -6.80508,-1.16815 z m -27.722,0.11221 c 0,-0.58085 0.59745,-1.65342 1.32764,-2.3837 1.97887,-1.97882 2.04289,-21.1515 0.0786,-23.51837 -2.36927,-2.8548 -0.73799,-4.4684 4.13018,-4.08544 4.32691,0.34038 6.28671,2.38568 3.77398,3.93863 -1.79974,1.1123 -1.86607,23.14467 -0.0697,23.14467 0.72606,0 1.3201,0.89106 1.3201,1.98014 0,1.43019 -1.46677,1.98014 -5.28038,1.98014 -2.90421,0 -5.28039,-0.47523 -5.28039,-1.05607 z m -75.24545,-0.186 c 0,-0.68329 0.59404,-1.60933 1.32009,-2.05817 1.81919,-1.12432 1.68855,-22.20511 -0.149,-24.04266 -3.02291,-3.02291 -0.0216,-3.9667 9.9243,-3.12084 0.65706,0.0558 0.21153,1.18796 -0.99007,2.51572 -1.63018,1.80131 -2.18475,4.96493 -2.18475,12.463 0,5.5269 0.59404,10.41599 1.3201,10.86469 0.72605,0.44883 1.32009,1.6719 1.32009,2.71821 0,1.3391 -1.56289,1.90212 -5.28038,1.90212 -2.90421,0 -5.28038,-0.55893 -5.28038,-1.24207 z m -39.60287,0.54123 c 0,-0.44434 0.89106,-1.69883 1.98014,-2.78791 2.35195,-2.35196 2.84862,-22.22053 0.59036,-23.6162 -2.56168,-1.58322 -0.4358,-3.84456 3.81524,-4.05836 4.62264,-0.23248 6.61585,1.52858 4.32402,3.82041 -0.8396,0.83961 -1.46909,6.10263 -1.46909,12.28278 0,10.57668 0.0762,10.83278 3.4724,11.68517 2.60076,0.65278 4.28659,0.10824 6.71578,-2.16702 l 3.24337,-3.03858 -0.44532,3.96022 -0.44532,3.96029 -10.89079,0.38348 c -5.98994,0.21082 -10.89079,0.0198 -10.89079,-0.42428 z m 241.51152,0.66018 c -0.85345,-0.52751 -0.60927,-2.2134 0.67813,-4.68211 2.06704,-3.96376 2.80638,-13.76132 1.03796,-13.7549 -0.54454,10e-4 -3.06922,4.01178 -5.6104,8.91065 -2.54119,4.8989 -5.0964,8.90698 -5.67825,8.90698 -0.58186,0 -2.48212,-3.50407 -4.22281,-7.78701 -4.59176,-11.29775 -5.94009,-12.00495 -5.94009,-3.11562 0,4.09564 0.59404,7.81373 1.3201,8.26243 2.74923,1.69923 1.14811,3.30024 -3.30024,3.30024 -4.52466,0 -6.43919,-2.68032 -3.30024,-4.62033 1.82667,-1.12888 1.6625,-18.26558 -0.21444,-22.38502 -1.90632,-4.18394 -0.9295,-5.28077 3.4059,-3.82432 2.45867,0.82597 4.74013,3.95246 8.5293,11.68835 l 5.17281,10.56077 5.0842,-10.88511 c 4.92988,-10.55476 8.42701,-14.02211 11.27253,-11.17659 0.85624,0.85624 0.81074,1.60598 -0.13289,2.18918 -1.87809,1.16072 -1.91595,22.71977 -0.042,23.87802 0.76625,0.47352 1.20371,1.84523 0.97214,3.0481 -0.42412,2.20311 -6.30582,3.171 -9.03179,1.48629 z M 277.12706,359.52634 c -2.39224,-6.74349 -5.20735,-13.26611 -6.25583,-14.4947 -2.75101,-3.22358 -1.48967,-5.32894 3.52128,-5.87751 4.10956,-0.44989 4.32157,-0.27542 3.52444,2.90058 -0.9154,3.64726 4.11171,19.47979 5.84504,18.40853 0.54457,-0.33656 2.34942,-3.961 4.01077,-8.05433 2.39831,-5.90905 2.70933,-7.9409 1.50957,-9.86199 -1.91901,-3.07284 -0.30403,-4.07193 4.89976,-3.03117 4.69566,0.93913 4.88797,1.38614 1.97915,4.60035 -1.16419,1.28642 -4.30682,7.82613 -6.98361,14.5327 -2.67678,6.70649 -5.50457,12.40627 -6.28398,12.66606 -0.7794,0.2598 -3.37436,-5.04501 -5.76659,-11.78852 z m 322.51175,93.18773 c 0.4505,-0.45055 3.62294,-1.34293 7.04987,-1.98318 13.75685,-2.57009 15.22882,-6.76707 16.04538,-45.75055 l 0.64372,-30.7313 15.99302,0.3691 15.99302,0.36923 0.66005,32.34234 c 0.47434,23.24253 1.14804,33.19803 2.39442,35.38331 2.22923,3.90841 9.20995,8.16295 13.44673,8.19516 1.81513,0.0132 4.1913,0.60104 5.28038,1.30478 1.3025,0.84183 -11.76089,1.2867 -38.17277,1.2999 -22.08409,0.0132 -39.78431,-0.34837 -39.33382,-0.79879 z m -74.56814,-5.45147 c -1.51551,-3.44875 -9.50168,-20.75639 -17.74707,-38.46138 -8.24537,-17.70512 -14.99158,-32.70471 -14.99158,-33.33241 0,-0.62784 7.33201,-1.14149 16.29334,-1.14149 h 16.29335 l 8.9597,20.79151 c 4.92782,11.43532 9.82798,22.50063 10.88923,24.58955 l 1.92954,3.79791 9.12424,-21.6192 c 12.01283,-28.46364 12.01321,-28.46443 12.66345,-26.67689 0.30868,0.84869 -1.89606,7.38316 -4.89945,14.52105 -15.82053,37.59989 -18.56884,44.16565 -22.42355,53.57107 -4.09191,9.98414 -4.30317,10.23074 -8.76436,10.23074 -4.18677,0 -4.80319,-0.52751 -7.32684,-6.27046 z m -125.14534,5.12211 c 0,-0.63167 2.54855,-1.43574 5.66343,-1.78675 11.15811,-1.25766 21.31087,-8.39146 25.61799,-18.0003 1.67699,-3.74128 2.2791,-10.51087 2.71706,-30.54833 0.30944,-14.15803 1.01528,-26.21842 1.56855,-26.80098 0.55326,-0.58269 1.42261,10.40711 1.93189,24.42177 0.50927,14.01453 1.54816,27.84689 2.30864,30.73869 2.86788,10.90518 17.39106,20.48405 31.05715,20.48405 2.40941,0 4.38073,0.59405 4.38073,1.3201 0,0.84922 -13.42097,1.3201 -37.62272,1.3201 -20.6925,0 -37.62272,-0.51669 -37.62272,-1.14835 z m -72.22534,0.32843 c 0.45098,-0.45094 5.59215,-1.30108 11.42482,-1.88905 7.57487,-0.76355 12.49597,-2.09829 17.22363,-4.67142 10.65876,-5.8013 20.04782,-19.84553 26.39556,-39.48301 1.64286,-5.08237 3.50755,-9.80501 4.14374,-10.49476 1.36852,-1.48365 1.53612,23.02471 0.29606,43.29188 l -0.86065,14.06628 H 356.6016 c -16.34687,0 -29.35258,-0.36897 -28.90161,-0.81992 z m -108.62776,-0.50018 c 1.08908,-0.70374 3.34624,-1.28868 5.01591,-1.29977 4.84627,-0.0317 10.59149,-3.67461 13.0815,-8.29323 1.94054,-3.59937 2.40928,-9.23051 2.99257,-35.9503 l 0.6916,-31.68229 16.17117,-0.37055 16.17117,-0.37069 0.0574,28.75274 c 0.0317,15.81396 0.55827,31.34501 1.17032,34.51337 1.66259,8.6065 5.77418,11.94264 16.61001,13.47726 4.98531,0.70598 9.34772,1.56708 9.69421,1.91361 0.3465,0.34652 -18.32987,0.62097 -41.50304,0.60975 -27.69022,-0.0132 -41.45422,-0.45887 -40.15284,-1.2999 z"
     inkscape:connector-curvature="0" />
  <path
     id="path831"
     style="fill:#d8ae6c;fill-opacity:1;stroke-width:1.32009566"
     d="m 78.473482,194.84512 c 0.512487,-3.03337 0.206357,-7.31131 -0.731597,-10.22383 -0.887039,-2.7544 -1.903301,-5.89907 -2.258354,-6.98815 -0.35504,-1.08908 -1.8628,1.7081 -3.350561,6.21594 -2.230222,6.75749 -2.430771,8.79797 -1.142569,11.62527 0.859343,1.88606 2.15396,3.06361 2.876924,2.6168 0.722963,-0.44681 1.314485,0.14879 1.314485,1.32357 0,4.00471 2.407762,0.66216 3.291672,-4.5696 z m 36.437538,10.88545 c 3.8138,-2.25286 3.83394,-2.33221 3.83394,-15.10319 0,-7.06113 -0.55488,-13.18136 -1.2331,-13.60052 -1.51856,-0.93852 -14.60804,11.93632 -14.60804,14.3685 0,0.96561 0.87534,2.48213 1.94521,3.37004 1.06986,0.8879 2.33598,3.78235 2.81357,6.43208 1.40092,7.77234 1.57766,7.88289 7.24842,4.53309 z m -64.811026,-0.2236 c 0,-8.20347 -0.316968,-9.29652 -3.253798,-11.22081 -4.888644,-3.20316 -5.986872,-2.64139 -5.986872,3.06248 0,5.91144 1.857797,11.55442 4.916815,14.9346 3.533183,3.90411 4.323855,2.66498 4.323855,-6.77627 z m 53.120226,8.75882 c 0.32938,-0.90756 0.17528,-4.62033 -0.34243,-8.25059 -0.66539,-4.66572 -0.99301,-5.39126 -1.11769,-2.47518 -0.097,2.26891 -0.54765,5.98168 -1.00144,8.2506 -0.800253,4.00126 1.18369,5.99619 2.46156,2.47517 z m -68.961374,-0.20333 c 0,-1.65976 -1.232626,-4.13325 -2.739172,-5.49665 -2.722499,-2.46383 -2.733812,-2.45502 -1.857453,1.44551 1.682105,7.48679 2.152759,8.57927 3.371577,7.82599 0.673777,-0.41641 1.225048,-2.11509 1.225048,-3.77485 z m 60.525961,6.14376 c 4.47395,-8.50977 2.685154,-25.46658 -4.117787,-39.03423 -4.705798,-9.38516 -4.114118,-10.20152 -8.085836,11.15618 -2.874033,15.45498 -2.690976,18.81974 1.356675,24.93614 3.794074,5.73324 8.682401,7.05906 10.846948,2.94191 z m -20.990074,5.64505 c 3.595122,-1.8591 3.708056,-2.19619 2.543124,-7.59055 -1.810973,-8.38592 -3.83394,-13.00624 -8.112053,-18.52737 -2.114569,-2.72897 -5.480601,-8.34212 -7.480071,-12.47366 l -3.635411,-7.51191 -0.903408,6.81029 c -0.496884,3.74567 -0.524698,8.31924 -0.06178,10.1635 0.522098,2.08023 0.286117,3.3532 -0.621607,3.3532 -0.919512,0 -1.463207,3.16104 -1.463207,8.50701 0,7.11166 0.526019,9.11452 3.206961,12.21088 l 3.206961,3.70388 1.217392,-3.25383 c 1.195466,-3.19516 1.24658,-3.16542 2.835856,1.65012 1.766988,5.35406 3.540087,5.92009 9.267282,2.95844 z m 66.908187,1.9455 c 3.98104,0 9.25933,-6.69914 11.66745,-14.80814 1.10451,-3.71932 1.83421,-6.93639 1.62153,-7.14906 -0.61148,-0.87025 -1.17454,-0.0137 -1.94337,0.76088 -1.81946,0.86125 -3.24667,2.30965 -4.87469,3.45957 -3.18866,1.90795 -6.25316,4.11761 -9.13645,6.43693 -0.30287,0.0496 -1.08519,2.73489 -3.20085,8.31057 l -2.6225,6.91146 2.79986,-1.9611 c 1.53993,-1.0786 4.09998,-1.96109 5.68902,-1.96109 z m -105.123978,6.1067 c 0,-0.27157 -1.535892,-3.24178 -3.413094,-6.60048 -2.875696,-5.14516 -4.036232,-6.10669 -7.370542,-6.10669 -2.176587,0 -3.756451,0.44553 -3.510821,0.99007 0.245643,0.54454 1.295806,3.19077 2.333691,5.88052 1.796756,4.65644 3.374891,5.66222 9.650599,6.15059 1.270592,0.0989 2.310167,-0.0424 2.310167,-0.31401 z m 90.821728,-2.08464 c 4.34919,-4.34919 8.97076,-18.68519 7.87373,-24.42403 0.65072,-1.6069 1.02785,-3.48939 1.41296,-3.94436 0.62868,-0.6207 0.21885,-2.87235 0.21885,-3.50003 0,-3.20702 -2.70132,-2.02402 -9.16442,4.01341 -2.36773,2.2118 -4.75171,3.74534 -5.29774,3.40787 -0.54602,-0.33746 -3.71463,1.11259 -7.04135,3.22232 -4.58775,2.90947 -6.39089,5.05155 -7.46585,8.86921 -1.20714,4.28716 -1.08663,5.22901 0.81296,6.35341 1.22662,0.72605 4.35084,3.23466 6.9427,5.57469 2.59187,2.34002 5.40935,4.27066 6.26108,4.29031 0.85171,0.0197 3.30291,-1.71861 5.44708,-3.8628 z m -69.033986,7.84688 c 2.240097,-4.33186 1.540393,-6.82261 -3.095109,-11.01766 -1.470389,-1.33069 -2.380898,-3.18177 -2.02335,-4.11352 0.633025,-1.64963 -15.098963,-13.26917 -16.316712,-12.05141 -0.32077,0.32077 0.13362,4.04608 1.009755,8.27846 1.556828,7.52061 6.384351,15.51235 12.405585,20.53682 3.898018,3.25274 5.681203,2.88971 8.019831,-1.63269 z m -4.626499,13.21288 c 0,-0.72605 -0.621594,-1.32009 -1.381322,-1.32009 -2.007166,0 -13.128232,-10.91924 -13.134463,-12.89608 -0.004,-1.06522 -1.086887,-1.41884 -2.975482,-0.97108 -1.633618,0.3873 -7.87107,-0.0936 -13.861004,-1.06859 -5.989881,-0.97504 -10.890736,-1.34548 -10.890736,-0.8232 0,0.52228 2.002981,3.83617 4.451099,7.36421 l 4.45123,6.41459 10.399898,-0.34182 c 8.077414,-0.26549 11.579073,0.22655 15.680254,2.20332 6.222099,2.99903 7.260526,3.2048 7.260526,1.43874 z m 89.787355,3.28707 c 7.55709,-4.77058 20.93987,-21.46485 19.31485,-24.09419 -0.39366,-0.63693 -4.36496,-1.25865 -8.82515,-1.38157 -9.43977,-0.26017 -18.787,3.15871 -24.26314,8.87456 -3.02475,3.15716 -3.31585,4.14566 -2.13533,7.25067 0.75177,1.97733 1.36686,5.53661 1.36686,7.90952 0,2.37291 0.4169,4.73129 0.92645,5.24083 1.43517,1.43517 8.40322,-0.50947 13.61546,-3.79982 z m 6.75799,4.26789 c 1.89134,-3.37964 -0.44989,-3.40533 -6.1188,-0.0672 l -5.28038,3.10939 5.11239,-0.47183 c 2.89981,-0.26763 5.62065,-1.38007 6.28679,-2.5704 z m 17.53694,8.46562 c 2.11988,-1.20108 4.07226,-2.83759 4.33863,-3.63671 0.4405,-1.32151 -9.21944,-4.88574 -12.00564,-4.42971 -0.64486,0.10561 -1.53593,-0.35711 -1.98014,-1.02816 -0.4442,-0.67103 -3.35391,0.40452 -6.46602,2.39013 l -5.65841,3.61018 4.33831,2.61263 c 7.78974,4.6912 9.90057,4.74952 17.43327,0.48164 z m -117.621989,3.00175 c 3.342851,-2.43807 4.922913,-8.46156 2.219608,-8.46156 -0.726052,0 -1.320095,-0.82275 -1.320095,-1.82832 0,-1.00557 -1.485108,-2.8014 -3.300239,-3.99072 -1.815132,-1.18933 -3.300239,-1.78337 -3.300239,-1.32009 0,0.46326 -1.464211,-0.1171 -3.253798,-1.28967 -3.675754,-2.40845 -8.182164,-2.8066 -8.856865,-0.78253 -0.247399,0.7422 -2.227543,1.66378 -4.400314,2.04796 -2.172772,0.38419 -6.261385,2.30163 -9.085756,4.26096 -2.824477,1.95936 -6.236792,4.20959 -7.583026,5.00053 -2.1666726,1.2729 -1.6526274,1.83088 4.475257,4.85819 9.195825,4.54299 10.628868,4.83519 21.576025,4.39945 6.69138,-0.26634 10.361602,-1.0943 12.829442,-2.8942 z m 109.566059,13.22994 c 2.02154,-0.77574 1.89506,-1.2298 -1.12133,-4.0253 -1.86994,-1.73301 -5.15002,-4.05594 -7.28907,-5.16209 -2.13904,-1.10612 -3.88917,-2.57469 -3.88917,-3.26345 0,-2.05577 -7.46435,-5.28038 -12.22304,-5.28038 -4.9013,0 -7.3564,1.57308 -10.56648,6.77038 -2.03353,3.29237 -1.99451,3.60993 0.76184,6.19938 5.66565,5.32261 11.41935,6.95685 22.08782,6.2737 5.47847,-0.35082 10.98622,-1.03133 12.23943,-1.51222 z m -135.500644,0.10772 c 3.370969,-6.00956 1.983549,-8.15313 -3.450031,-5.33031 -3.363603,1.74741 -9.318687,8.77182 -9.318687,10.99183 0,0.64116 2.213008,0.80601 4.917885,0.36636 3.98682,-0.64805 5.473274,-1.78931 7.850833,-6.02788 z m 128.481454,18.75743 c 0,-3.66063 -4.12769,-7.55426 -8.00834,-7.55426 -2.3239,0 -4.82617,-1.10448 -6.19561,-2.73469 -2.27778,-2.71151 -10.78887,-7.035 -11.81968,-6.0042 -0.29505,0.29505 1.92833,2.5305 4.94081,4.96769 3.0125,2.43719 7.30183,6.36188 9.53187,8.72155 4.16774,4.41002 11.55095,6.0744 11.55095,2.60391 z m -124.085866,3.64271 c 1.816847,-0.9273 4.433594,-2.93491 5.815008,-4.46134 1.381401,-1.52644 3.16213,-2.7818 3.957171,-2.78968 1.869163,-0.0185 17.946713,-14.92705 17.946713,-16.64176 0,-0.79624 -2.800583,-0.99605 -7.189531,-0.51297 -5.751062,0.63303 -7.762096,1.51926 -10.051221,4.4294 -3.42483,4.35397 -4.970926,3.74977 -2.001489,-0.78216 2.233034,-3.40803 1.653578,-4.95952 -1.852332,-4.95952 -2.796517,0 -9.81668,7.2843 -8.724024,9.05227 0.457612,0.74043 0.02442,1.82828 -0.962521,2.41744 -1.48586,0.88694 -8.821697,15.1706 -8.821697,17.17676 0,0.95956 8.248855,-1.07314 11.883923,-2.92844 z m 108.241316,3.97516 c -2.40883,-6.33569 -5.12763,-10.59308 -10.93584,-17.12454 l -5.84494,-6.57273 -4.7295,4.15256 c -2.60124,2.28391 -5.74204,4.71921 -6.97956,5.41175 -2.09945,1.17492 -2.08267,1.48201 0.25067,4.58839 3.21895,4.28539 20.39588,12.53088 26.55978,12.74955 2.6,0.0923 2.79297,-0.27603 1.67939,-3.20498 z m -17.66949,9.29083 c -2.49662,-3.81031 -5.08814,-4.49862 -3.88278,-1.03127 0.90196,2.59464 4.53876,5.90611 5.46696,4.97792 0.33286,-0.33287 -0.38002,-2.10886 -1.58418,-3.94665 z m -75.81787,4.90916 c 3.693231,-3.86356 4.875707,-6.32696 5.386135,-11.22081 0.3597,-3.44875 0.194477,-6.27045 -0.367184,-6.27045 -2.204428,0 -9.010828,9.28461 -9.847438,13.43292 -0.486759,2.4136 -1.177724,5.42794 -1.53547,6.69853 -1.030189,3.65882 1.244864,2.71498 6.363957,-2.64019 z m 63.95814,-4.38092 c -0.58517,-9.63484 -1.57969,-15.66816 -2.91985,-17.71349 -1.98602,-3.03106 -2.16609,-3.05629 -7.891637,-1.1054 -6.130445,2.08886 -6.983253,3.83802 -4.273664,8.76554 0.872068,1.58589 1.773746,4.07152 2.003733,5.52363 0.849917,5.36621 4.531123,15.02368 6.279906,16.47504 1.440822,1.19577 1.668842,0.98049 1.132752,-1.06951 -0.36917,-1.41166 0.0143,-2.99034 0.85218,-3.50816 0.88765,-0.54859 1.42128,-0.19759 1.2787,0.84109 -0.57307,4.17471 0.2088,6.40292 2.24672,6.40292 1.94699,0 2.08426,-1.5535 1.29116,-14.61166 z m -15.440204,1.83118 c -2.314273,-7.85482 -4.498213,-15.61807 -4.853187,-17.25169 -1.539786,-7.08627 -4.297901,-0.14229 -4.297901,10.82064 0,9.55613 6.130286,24.49192 10.052541,24.49192 1.00557,0 1.91732,0.74255 2.026109,1.65012 0.108776,0.90756 0.441335,0.0572 0.739003,-1.88969 0.297668,-1.94691 -1.352293,-9.96649 -3.666565,-17.8213 z m -35.411565,12.19815 c 0.321298,-9.17249 0.565489,-11.12595 1.508685,-12.06887 0.544539,-0.54438 0.990071,1.78242 0.990071,5.17066 0,3.38825 0.524501,6.16045 1.165552,6.16045 2.208322,0 8.395729,-15.19961 9.777077,-24.01779 1.650436,-10.53595 0.262092,-13.62627 -5.190391,-11.55324 -4.313862,1.64012 -4.432142,1.61515 -4.432142,-0.9362 0,-2.00494 -0.205922,-1.99839 -2.502043,0.0796 -3.508471,3.17512 -4.363048,8.11629 -4.930333,28.50708 -0.446694,16.05601 -0.299292,17.56746 1.488144,15.25881 1.091164,-1.40936 2.047587,-4.37957 2.12538,-6.60047 z m 18.802491,-8.70876 -2.360265,-9.16235 -2.779989,7.57661 c -1.528987,4.16713 -2.336516,8.09451 -1.794511,8.72753 0.542018,0.63302 0.655942,2.00968 0.253181,3.05927 -0.402761,1.04958 0.03815,3.34787 0.979735,5.10731 l 1.712032,3.19896 3.175054,-4.67249 3.175042,-4.67251 z m 8.581638,52.54251 c -1.707095,-1.71863 -4.240622,-3.98524 -5.630089,-5.03683 -2.360964,-1.78688 -2.427101,-1.72576 -1.01052,0.93331 1.522071,2.85695 8.406554,8.5661 9.278385,7.69431 0.256309,-0.25623 -0.930694,-1.87216 -2.637776,-3.59079 z M 207.17116,624.3248 c 0.0363,-5.0358 6.49002,-28.4406 9.56079,-34.6729 2.67193,-5.4229 2.98198,-7.8956 2.83266,-22.5906 -0.0923,-9.0757 -0.79711,-17.9863 -1.56644,-19.8015 -1.29062,-3.0449 -1.40525,-2.8667 -1.48245,2.3051 -0.11168,7.4823 -4.6688,20.2729 -10.78138,30.2605 -6.32833,10.3401 -8.14982,16.9438 -8.31305,30.139 -0.1204,9.7303 0.17133,10.9556 3.70902,15.5803 3.98774,5.213 5.99735,4.8072 6.04085,-1.2199 z m 188.13383,108.3887 c -50.70998,-5.9067 -97.2525,-21.6864 -142.66742,-48.3699 -16.46386,-9.6734 -27.80435,-18.6024 -44.64042,-35.1476 -20.46833,-20.1147 -43.72064,-50.446 -59.09683,-77.0883 l -6.79145,-11.7676 -8.92396,0.8795 c -8.42048,0.8297 -9.49798,0.6068 -19.09799,-3.9499 -6.91775,-3.2836 -12.57619,-7.2427 -17.679398,-12.3699 C 87.19699,535.646 75.274006,516.6673 67.619788,499.0764 58.191295,477.4078 49.801969,463.2718 43.040479,457.6602 c -3.120482,-2.5898 -2.697325,-5.44724 0.806684,-5.44724 6.805502,0 22.589159,12.90064 55.811107,45.61684 12.15821,11.973 22.37033,21.5047 22.69358,21.1815 0.32326,-0.3233 -1.85186,-7.535 -4.83357,-16.026 -2.98173,-8.4911 -6.9227,-22.3488 -8.75773,-30.7951 -1.83502,-8.4463 -5.38486,-24.26755 -7.88854,-35.15834 -2.503698,-10.89079 -5.701854,-25.72774 -7.107029,-32.9711 -1.405176,-7.24337 -3.204519,-13.3863 -3.998544,-13.65098 -4.694154,-1.56471 -14.54579,-10.02665 -18.480374,-15.87336 -2.787739,-4.14259 -5.550342,-6.80958 -7.053825,-6.80958 -1.387368,0 -2.232639,-0.72367 -1.927076,-1.65012 0.327106,-0.99152 3.502174,-1.80716 7.956309,-2.04374 6.861658,-0.36445 7.789567,-0.0525 12.497252,4.20051 l 5.085272,4.5942 -1.420779,-13.76407 c -0.943301,-9.13848 -2.11144,-14.45479 -3.47593,-15.81928 -1.86016,-1.86016 -2.53197,-1.52741 -7.080082,3.50682 l -5.024931,5.56198 -3.440631,-3.96567 c -2.074979,-2.39162 -4.357596,-3.74795 -5.750812,-3.41713 -1.270592,0.30169 -2.319263,0.9505 -2.330378,1.4418 -0.01056,0.49132 -0.500105,1.64942 -1.086636,2.5736 -0.851805,1.34212 -2.043271,1.27215 -5.92022,-0.34774 -4.826243,-2.01654 -4.854678,-2.0748 -5.010198,-10.26093 -0.08607,-4.52809 -0.06125,-9.12395 0.05505,-10.21303 0.18307,-1.71439 0.03855,-1.72286 -1.076591,-0.063 -0.708416,1.05441 -1.020527,2.34997 -0.693565,2.87901 0.749035,1.21195 -1.213683,2.4484 -5.054026,3.18387 -1.636351,0.31339 -3.57771,1.38984 -4.314138,2.39212 -0.736429,1.00229 -3.180467,2.22681 -5.431204,2.72114 -3.929753,0.86312 -4.12378,0.69964 -4.886083,-4.11707 -0.436608,-2.75874 -0.247491,-8.85494 0.420253,-13.5471 0.667744,-4.69217 1.092841,-8.63894 0.944647,-8.77061 -0.148181,-0.13161 -4.110619,0.55923 -8.805368,1.53532 -4.69492,0.97611 -8.7881404,1.52265 -9.0962507,1.21457 -0.3079783,-0.30807 1.5780427,-4.85752 4.1911717,-10.10986 2.613261,-5.25234 4.44661,-9.8545 4.074079,-10.22702 -0.372531,-0.37251 -1.167228,0.11525 -1.765892,1.08395 -0.902945,1.46099 -1.198911,1.45446 -1.735794,-0.0383 -0.543351,-1.51011 -1.128153,-1.51457 -3.636995,-0.0277 -6.4128926,3.80064 -6.3420034,-4.94774 0.104287,-12.83352 4.306813,-5.26879 4.006095,-6.69007 -2.1125486,-9.98516 -2.5230987,-1.35878 -4.5874642,-2.97102 -4.5874642,-3.58274 0,-0.61172 -0.8910645,-1.11222 -1.9801434,-1.11222 -4.0392285,0 -1.73117344,-2.48723 7.2705585,-7.83505 L 18.438082,255.38895 14.63383,250.5035 C 9.9086796,244.43552 3.2247715,231.98915 4.1789366,231.03505 c 0.3898242,-0.38983 4.460735,-0.10455 9.0466154,0.634 4.58588,0.73854 8.535171,1.14557 8.77622,0.90453 0.241036,-0.24105 -1.053595,-3.04805 -2.876977,-6.23779 -4.671554,-8.17233 -4.392882,-9.09978 2.734644,-9.09978 4.611728,0 5.913659,-0.43781 5.386571,-1.81137 -0.3823,-0.99625 -1.107336,-4.56051 -1.611216,-7.92057 -0.774645,-5.16571 -0.579997,-6.10921 1.260348,-6.10921 1.197063,0 3.640678,0.95938 5.430266,2.13197 l 3.253798,2.13197 v -10.05254 c 0,-9.37989 0.188325,-10.05254 2.814404,-10.05254 1.547918,0 4.804317,1.22984 7.236448,2.73298 2.43213,1.50314 4.942015,2.41161 5.577535,2.01884 0.635521,-0.39278 1.500962,-4.06132 1.923182,-8.15234 0.770078,-7.46126 2.099704,-10.57291 3.200651,-7.49027 0.324123,0.90756 1.390852,1.65012 2.370509,1.65012 0.979643,0 2.172468,1.23285 2.650712,2.73967 0.478244,1.50682 1.212627,2.39659 1.631942,1.97727 0.419328,-0.41933 1.850206,0.22201 3.179714,1.42521 1.35591,1.22707 2.417293,1.53989 2.417293,0.71244 0,-2.53085 5.419045,-16.09526 6.430133,-16.09526 0.528025,0 1.711887,2.07915 2.630792,4.62033 2.046861,5.66052 3.652163,5.88648 4.796752,0.67519 1.677182,-7.63617 3.124878,-6.92931 11.45649,5.59387 2.293916,3.44798 4.452801,5.98701 4.797517,5.64231 0.344704,-0.34472 -0.200456,-1.68068 -1.211491,-2.96882 -1.671518,-2.12965 -1.628708,-2.17775 0.471934,-0.53032 1.270592,0.99648 2.310167,2.6897 2.310167,3.76274 0,1.14524 3.10508,-0.88691 7.51871,-4.92071 9.1417,-8.35501 13.08524,-11.03019 14.74638,-10.00356 1.19053,0.73579 3.86259,14.13396 4.46287,22.37762 0.34329,4.71444 2.6853,5.71886 6.89823,2.95845 5.50035,-3.60397 6.08842,-2.83083 5.3675,7.05673 l -0.66946,9.18202 5.71321,-3.8558 c 5.71033,-3.85386 12.69542,-7.05895 13.54108,-6.21328 1.09911,1.09911 -2.21285,15.72553 -4.63668,20.47662 l -2.6803,5.25382 8.53166,0.91367 c 4.69243,0.5025 8.53167,1.47949 8.53167,2.17108 0,3.17054 -4.13261,10.52212 -9.88479,17.58425 -5.96567,7.32424 -6.1109,7.68742 -2.82257,7.05882 1.90668,-0.36448 3.46669,-0.15103 3.46669,0.47433 0,0.62537 1.63362,1.14285 3.63027,1.14994 4.15352,0.0148 17.49126,5.86059 17.49126,7.6663 0,1.52003 -12.02815,12.83138 -14.53204,13.66601 -1.48495,0.49498 -1.26784,1.39249 1.04951,4.33852 1.60697,2.04294 2.87487,5.26793 2.81755,7.16667 -0.0573,1.89873 -0.40385,2.70968 -0.77005,1.80211 -0.36621,-0.90756 -1.78578,-1.65012 -3.1546,-1.65012 -1.59858,0 -2.23343,0.66537 -1.7749,1.86027 0.4759,1.24017 -0.85799,2.42863 -4.00172,3.56542 -2.59356,0.93785 -4.71556,2.0683 -4.71556,2.51213 0,0.44381 1.22968,3.3521 2.73264,6.46285 1.50295,3.11074 2.54253,5.84144 2.31016,6.06819 -0.23236,0.22677 -3.09566,0.63641 -6.3629,0.91031 l -5.94043,0.49804 -0.10679,5.62228 c -0.12145,6.38796 -3.27573,10.78988 -6.09735,8.50897 -0.94402,-0.76311 -4.37607,-1.82667 -7.62679,-2.36348 -4.91688,-0.81196 -5.67073,-0.67061 -4.48459,0.84082 1.56367,1.99247 -0.0673,10.39745 -2.01768,10.39745 -0.61401,0 -3.5028,-0.84198 -6.41954,-1.87106 l -5.30315,-1.87107 -0.78774,3.93871 c -0.43613,2.18065 -1.38388,3.57025 -2.12335,3.11325 -0.73457,-0.454 -1.33559,0.34818 -1.33559,1.78264 0,1.43445 0.74255,2.90938 1.65012,3.27765 1.24179,0.50387 1.16011,1.01609 -0.33003,2.06994 -1.08908,0.77021 -1.4158,1.40948 -0.72605,1.42059 0.68975,0.0106 0.60501,0.66929 -0.1883,1.4626 -1.03941,1.03942 -2.19083,1.04183 -4.12132,0.009 -2.37386,-1.27046 -2.78216,-0.96371 -3.58545,2.69366 -0.66703,3.03693 -1.21204,3.64498 -2.06292,2.30149 -0.82988,-1.31034 -1.1621,-0.82792 -1.17661,1.70858 -0.0132,2.20574 1.20907,4.50139 3.24972,6.10657 l 3.26995,2.57214 -5.01763,0.80234 -5.017635,0.80236 1.707702,12.2324 c 3.554453,25.46095 4.505403,30.70912 7.472523,41.23913 l 1.84986,6.5651 1.48105,-8.40809 c 0.90905,-5.16078 4.74155,-15.344 9.92322,-26.36653 10.38466,-22.09048 11.92588,-26.74592 10.81497,-32.6676 -0.80465,-4.28915 -0.64139,-4.60409 2.1794,-4.20427 1.67706,0.2377 2.90096,0.87757 2.71978,1.42194 -0.18117,0.54437 2.32993,6.18778 5.58024,12.54086 7.4469,14.5559 9.23961,25.61566 8.11714,50.0765 -1.04984,22.87779 -3.25529,28.95049 -14.38389,39.60625 -4.5236,4.3312 -9.92685,8.9828 -12.0072,10.3366 -3.55916,2.3162 -3.73572,2.8557 -2.99106,9.1404 0.90161,7.6093 9.51001,37.8199 14.66304,51.4588 8.79471,23.2778 26.56764,53.8273 43.83026,75.3389 l 11.6448,14.5109 0.8524,-9.5323 c 0.60412,-6.7557 2.1019,-12.1361 5.142,-18.4713 2.35927,-4.9164 5.74636,-12.8001 7.52684,-17.5195 1.78049,-4.7193 4.09709,-10.6597 5.148,-13.2009 l 1.91074,-4.6204 -0.60698,4.6204 c -0.33385,2.5412 -0.96328,5.8084 -1.39872,7.2605 -0.43545,1.4521 0.13531,0.6468 1.26834,-1.7893 3.82407,-8.2223 5.03977,-24.8426 2.79005,-38.1436 -1.13219,-6.6939 2.49976,-5.4053 6.38719,2.2662 1.82737,3.6061 3.32249,7.1533 3.32249,7.8826 0,0.7293 2.65701,5.8201 5.90445,11.3129 8.48887,14.3583 10.46948,20.6294 10.42014,32.9922 -0.054,13.5116 -2.97885,24.355 -11.12389,41.2392 -9.47898,19.6492 -8.97593,26.6825 2.72353,38.0787 9.35697,9.1144 15.73835,13.4898 30.99731,21.2528 6.52276,3.3185 13.65128,7.3742 15.84114,9.0129 6.51606,4.8756 36.11015,17.1971 55.4653,23.0929 37.95128,11.5604 62.78851,15.1743 104.28755,15.1743 29.32768,0 44.97951,-1.1747 63.84557,-4.7913 50.52318,-9.6853 93.39683,-27.3181 135.48887,-55.7229 29.41884,-19.8525 62.23687,-51.2104 85.88625,-82.0653 15.81327,-20.6311 37.31047,-59.4473 47.15066,-85.137 28.45045,-74.27552 32.36214,-152.29714 11.54914,-230.35679 C 761.58996,199.7745 716.38328,131.1929 658.34856,84.6005 607.34813,43.65549 548.61622,18.46186 482.43156,9.13915 458.72452,5.79981 415.01328,5.80284 391.34497,9.14615 317.974,19.50826 254.50977,49.01685 199.50869,98.34312 c -12.41954,11.13812 -13.44339,11.78301 -14.77042,9.30344 -1.93267,-3.61124 -0.27579,-5.75341 14.0572,-18.17434 24.74766,-21.44627 45.35851,-35.39052 73.74089,-49.88937 38.91749,-19.88058 70.28147,-29.84801 116.82846,-37.12786 21.07653,-3.29633 73.33836,-3.26742 95.04689,0.0525 43.55598,6.66123 75.52176,16.46918 111.40016,34.18055 27.97778,13.81121 46.03051,25.50002 70.11298,45.39689 19.64905,16.23395 31.00789,27.43297 48.71051,48.02511 27.31507,31.77357 52.35596,77.40163 67.01392,122.10885 27.83963,84.91175 23.88668,177.8084 -11.06603,260.05881 -19.17074,45.1124 -44.14259,82.0976 -78.89507,116.8497 -53.73395,53.7333 -117.93008,87.0994 -194.07552,100.8711 -27.20958,4.9212 -72.94686,6.1352 -102.30741,2.7153 z M 119.21382,438.02193 c 4.99843,-9.93873 8.15727,-22.74881 11.96305,-48.51351 0.5817,-3.93798 0.57624,-3.94167 -0.97311,-0.65965 -0.85694,1.81526 -4.26299,7.45867 -7.56901,12.54091 -6.90268,10.61119 -10.49026,18.8969 -10.49026,24.22797 0,4.02009 2.71537,18.67474 3.46024,18.67474 0.25056,0 1.87466,-2.82171 3.60909,-6.27046 z m 9.13093,16.78327 c 10.15443,-10.44179 14.23981,-19.59243 15.15812,-33.95151 0.72152,-11.28219 -1.19078,-29.52578 -4.27047,-40.74065 l -1.77003,-6.44577 -0.14171,7.92058 c -0.33295,18.60912 -4.60014,37.4618 -13.81283,61.02604 -2.61957,6.7004 -4.76287,13.38341 -4.76287,14.85111 0,1.4678 -0.59404,2.6685 -1.32009,2.6685 -0.72605,0 -1.3201,0.5941 -1.3201,1.3201 0,3.4162 5.19843,0.5925 12.23998,-6.6484 z m -49.28376,27.5541 c -9.242742,-8.2005 -10.584566,-9.0693 -5.254442,-3.4017 3.236887,3.4417 6.467636,6.2578 7.179419,6.2578 0.711782,0 -0.154451,-1.2853 -1.924977,-2.8561 z m 54.59006,61.2703 c -2.89366,-7.8442 -10.06177,-16.2223 -22.11897,-25.8526 -4.59323,-3.6687 -4.21558,-2.9696 3.09011,5.7211 4.57757,5.4454 8.88878,11.0888 9.58049,12.5409 0.6917,1.4521 -0.99587,0 -3.75016,-3.221 -2.75429,-3.2237 -8.42354,-9.4287 -12.59834,-13.7889 -4.17481,-4.3602 -7.59055,-8.6164 -7.59055,-9.4582 0,-1.5101 -13.629793,-15.1149 -15.142649,-15.1149 -0.428793,0 1.404714,3.4158 4.074476,7.5906 12.666213,19.8067 26.228863,34.1326 39.161123,41.3652 5.42028,3.0313 6.3464,3.0695 5.29447,0.2178 z m -2.52344,9.6311 c -9.59114,-3.6929 -17.00749,-8.2541 -21.85577,-13.4417 -1.943,-2.0789 -10.477506,-14.1757 -18.965589,-26.8816 C 73.279552,487.45 65.735562,477.0603 64.878094,477.9179 c -0.310671,0.3106 1.175585,3.4162 3.3028,6.9014 2.127216,3.4851 7.678878,14.6531 12.33702,24.8178 7.858489,17.1485 9.237408,19.2623 19.118139,29.308 12.714907,12.927 21.272867,17.5565 32.309867,17.4781 l 7.26052,-0.052 -8.07883,-3.1107 z"
     inkscape:connector-curvature="0"
     sodipodi:nodetypes="ssccsssssscscssscssscscscscscscsscccscscccssccccccscccccsccsscsccsscscscccsccccssscscssccccsccscsccsscsscccccccccccccccccscsccccccsccscssccsccssscssscccsssccsccssccsscscscsccsccscsscccsssccccccssscssccsccssssscsccccsccccccccscscscccccscccccsscsssscsscsscsccsccscssccscccccccccsccsccccsccccssscccccccsscsccssscccssccsscsccccscccsccsccccsscscssccssccsccccccccsccccscccsccccscccsscssscccsscssscssccccscscsscssscsssssscsscssssscssssssscccscssscscsascssssccsccccscssssccccsssssccccc" />
</svg>
