<?xml version="1.0" encoding="UTF-8" standalone="no"?>
<!-- Created with Inkscape (http://www.inkscape.org/) -->

<svg
   xmlns:dc="http://purl.org/dc/elements/1.1/"
   xmlns:cc="http://creativecommons.org/ns#"
   xmlns:rdf="http://www.w3.org/1999/02/22-rdf-syntax-ns#"
   xmlns:svg="http://www.w3.org/2000/svg"
   xmlns="http://www.w3.org/2000/svg"
   xmlns:sodipodi="http://sodipodi.sourceforge.net/DTD/sodipodi-0.dtd"
   xmlns:inkscape="http://www.inkscape.org/namespaces/inkscape"
   version="1.1"
   id="svg815"
   width="800"
   height="356.61499"
   viewBox="0 0 800 356.61499"
   sodipodi:docname="logo-compacta.svg"
   inkscape:version="0.92.3 (2405546, 2018-03-11)">
  <metadata
     id="metadata821">
    <rdf:RDF>
      <cc:Work
         rdf:about="">
        <dc:format>image/svg+xml</dc:format>
        <dc:type
           rdf:resource="http://purl.org/dc/dcmitype/StillImage" />
        <dc:title></dc:title>
      </cc:Work>
    </rdf:RDF>
  </metadata>
  <defs
     id="defs819" />
  <sodipodi:namedview
     pagecolor="#ffffff"
     bordercolor="#666666"
     borderopacity="1"
     objecttolerance="10"
     gridtolerance="10"
     guidetolerance="10"
     inkscape:pageopacity="0"
     inkscape:pageshadow="2"
     inkscape:window-width="1920"
     inkscape:window-height="1001"
     id="namedview817"
     showgrid="false"
     inkscape:zoom="0.89272232"
     inkscape:cx="722.37578"
     inkscape:cy="225.31303"
     inkscape:window-x="1991"
     inkscape:window-y="-9"
     inkscape:window-maximized="1"
     inkscape:current-layer="svg815" />
  <path
     id="path835"
     style="fill:#d8ae6c;fill-opacity:1;stroke-width:2.17612886"
     d="m 639.78187,145.21885 c 0,-1.84706 7.88063,-21.87288 17.51254,-44.50183 28.52917,-67.025666 37.5699,-88.609046 39.6594,-94.6805959 0.7652,-2.22344 4.92617,-3.9969 11.48793,-4.89628 13.28616,-1.82108996 61.056,-1.36045996 69.52431,0.6704 l 6.52839,1.5656 -6.52839,1.5213 c -13.9554,3.252 -17.11964,4.83335 -21.539,10.7642299 -4.34285,5.82811 -4.60397,9.07997 -5.15545,64.19579 -0.31948,31.931196 -1.07258,60.260026 -1.67356,62.952986 -1.05864,4.74396 -1.90276,4.89628 -27.13138,4.89628 h -26.03871 l -0.57738,-62.563676 -0.57744,-62.56371 -5.13139,10.88065 c -5.70442,12.09561 -10.20587,22.72539 -31.79315,75.076416 -14.66606,35.56654 -18.56672,43.27311 -18.56672,36.68244 z m -253.15631,1.03714 c -0.79792,-0.79792 -1.45076,-28.26577 -1.45076,-61.039676 0,-48.6105 -0.59909,-60.74743 -3.25177,-65.87713 -4.28452,-8.28537 -11.41735,-13.0730599 -19.53776,-13.1141199 -3.62352,-0.018 -7.93819,-0.8884 -9.58815,-1.93346 -4.63438,-2.93532 13.94062,-4.36329996 50.61067,-3.89077996 l 32.37782,0.41722 31.15761,70.72418986 c 17.13666,38.898296 31.20996,71.977496 31.27394,73.509376 0.0898,2.15336 -6.15963,2.647 -27.54981,2.17612 -27.04865,-0.59546 -27.72797,-0.73048 -30.43554,-6.04938 -3.2501,-6.38475 -23.88146,-50.757436 -37.68972,-81.060786 -5.31742,-11.66949 -10.37113,-21.21726 -11.23043,-21.21726 -0.85934,0 -1.6267,24.16932 -1.7053,53.70962 -0.0786,29.540286 -0.455,54.021746 -0.83646,54.403206 -0.38148,0.38148 -1.34644,0.0408 -2.14434,-0.75714 z M 70.500658,161.64941 c 3.885445,-10.12537 3.774471,-13.36007 -0.496747,-14.47702 -4.13967,-1.08256 -4.336924,-3.49156 -5.057897,-61.771676 -0.925315,-74.79924 -0.678853,-74.0624 -26.863765,-80.3223699 l -6.528375,-1.56074 5.440306,-1.52826 c 7.502534,-2.10755996 101.59826,-2.51422996 110.95172,-0.4795 l 7.5856,1.65014 -12.34034,2.76164 c -10.57805,2.36728 -13.04515,3.90923 -17.27586,10.7977499 -4.76146,7.75265 -4.96622,10.20447 -5.80489,69.51172 l -0.86935,61.475636 H 101.0112 82.781346 l -4.440713,8.70453 c -4.218514,8.26893 -10.652648,12.56782 -7.839975,5.23815 z m 710.729572,55.82196 c 0,-1.12638 0.97926,-2.65292 2.17614,-3.39282 2.99885,-1.85341 2.78351,-36.6043 -0.24562,-39.63343 -3.93622,-3.9362 -0.061,-7.16138 7.42771,-6.18168 3.82953,0.50096 7.84895,0.97696 8.93211,1.05772 1.08314,0.0808 0.27154,2.02294 -1.80354,4.3159 -3.075,3.39785 -3.6236,7.32265 -2.96564,21.21725 0.44402,9.37653 1.60522,18.76182 2.58042,20.85636 1.53488,3.2966 0.57224,3.8082 -7.16423,3.8082 -4.91554,0 -8.93735,-0.92138 -8.93735,-2.0475 z m -63.10774,0 c 0,-1.12638 1.07071,-2.70952 2.37937,-3.51838 1.55154,-0.9588 2.11936,-9.14239 1.6321,-23.52173 l -0.74728,-22.0513 7.61648,0.75176 c 9.36015,0.92388 10.89629,2.2009 5.96622,4.9599 -3.10484,1.73757 -3.7901,5.23529 -3.7901,19.3454 0,15.322 0.5095,17.49704 4.61328,19.69319 3.77135,2.01836 5.72733,1.64536 10.71771,-2.04427 6.38231,-4.71854 8.89713,-3.0355 6.91037,4.62473 -0.83546,3.2213 -3.6316,3.8082 -18.1429,3.8082 -9.43539,0 -17.15525,-0.92138 -17.15525,-2.0475 z m -63.10772,0 c 0,-1.12638 0.97926,-2.65292 2.17612,-3.39282 2.99886,-1.85341 2.7835,-36.6043 -0.24562,-39.63343 -3.82831,-3.82832 -0.43962,-6.7011 7.19601,-6.10044 7.13272,0.5611 10.36341,3.9327 6.22126,6.49268 -1.31114,0.81032 -2.291,9.27217 -2.291,19.78459 v 18.36856 h 6.90107 c 3.79556,0 8.69187,-1.62059 10.88063,-3.60137 3.77546,-3.41674 3.97958,-3.24932 3.97958,3.26426 v 6.86547 h -17.40903 c -9.57496,0 -17.40902,-0.92138 -17.40902,-2.0475 z m -69.56692,0.50356 c 0.038,-0.94618 1.50696,-3.62108 3.26418,-5.94433 4.53019,-5.98936 4.47551,-35.07717 -0.0692,-36.82114 -1.7953,-0.68892 -3.26418,-2.55722 -3.26418,-4.15176 0,-2.17834 4.19321,-2.86184 16.865,-2.749 16.70964,0.1488 16.87132,0.20498 17.55356,6.09506 0.78588,6.78501 -0.87508,7.43533 -6.34563,2.48457 -6.32429,-5.72341 -12.84003,-2.08649 -12.84003,7.16696 v 7.76559 L 610.633,190.4473 c 8.55967,-1.17324 9.82937,-0.873 8.70453,2.0583 -0.72432,1.88757 -1.31694,4.84329 -1.31694,6.56831 0,2.63994 -0.83804,2.58728 -5.29439,-0.33264 -4.2043,-2.75476 -6.25531,-2.95476 -9.96137,-0.97134 -2.8481,1.52424 -4.17712,3.77416 -3.41012,5.77296 0.69126,1.80141 1.25684,4.54987 1.25684,6.10771 0,4.31175 7.72043,5.40133 14.25397,2.01158 7.63149,-3.95914 7.93165,-3.88014 7.11463,1.87235 -0.6483,4.56508 -1.9105,4.93916 -18.64844,5.52844 -9.87419,0.34754 -17.92192,-0.1414 -17.88386,-1.08804 z m -67.52921,-0.50356 c 0,-1.12638 0.97928,-2.65292 2.17614,-3.39282 3.17816,-1.96417 2.82156,-39.68043 -0.38528,-40.74939 -1.4088,-0.46958 -1.8881,-1.94326 -1.06514,-3.27484 1.84458,-2.98458 23.22648,-1.89614 29.58331,1.50592 6.06135,3.24394 6.17805,16.52392 0.20106,22.88607 -4.29736,4.57432 -4.29604,4.60236 0.54404,11.44333 2.66856,3.77174 6.56565,7.31041 8.66017,7.86359 6.18555,1.63406 4.34675,5.76564 -2.56598,5.76564 -5.13521,0 -7.67323,-1.92456 -13.0568,-9.90155 -7.90172,-11.70817 -7.94096,-11.99101 -2.33028,-16.795 7.80005,-6.67864 3.36999,-21.59592 -5.41264,-18.22574 -4.70899,1.80703 -4.73259,34.4893 -0.0276,38.39393 5.56366,4.61752 3.65276,6.52836 -6.52841,6.52836 -5.38591,0 -9.79257,-0.92138 -9.79257,-2.0475 z m -47.87483,-27.20169 c 0,-6.35215 -3.35987,-9.11763 -5.21231,-4.2902 -2.23326,5.81984 -1.46592,9.60211 1.94812,9.60211 2.01001,0 3.26419,-2.04099 3.26419,-5.31191 z m -30.4658,27.14967 c 0,-1.15466 1.74693,-3.0344 3.88205,-4.17708 3.37394,-1.80575 13.05397,-21.21795 19.9292,-39.96601 4.43136,-12.08383 8.60677,-7.07277 15.58696,18.70648 3.29148,12.15612 6.61588,20.00346 9.02067,21.29393 6.8815,3.69224 3.99226,6.2422 -7.07243,6.2422 -10.13505,0 -13.80046,-2.2908 -8.70453,-5.44032 1.19688,-0.73966 2.17614,-3.62101 2.17614,-6.40301 0,-6.91709 -9.73405,-8.88831 -15.48624,-3.1361 -4.57426,4.57424 -5.17044,7.53208 -1.92278,9.53911 4.93029,3.04724 1.57976,5.44032 -7.61647,5.44032 -5.38592,0 -9.79257,-0.94464 -9.79257,-2.09952 z M 265.65093,192.80702 c -0.0896,-0.86774 -0.1632,-3.53622 -0.1632,-5.92996 0,-2.39375 -0.86506,-4.35227 -1.92233,-4.35227 -2.36694,0 -4.83792,8.74499 -3.2136,11.37317 1.34406,2.17475 5.54747,1.30939 5.29913,-1.09094 z m -30.62904,24.78599 c 0,-1.05912 2.36459,-3.47506 5.25457,-5.36873 3.38538,-2.21812 7.71975,-9.85465 12.18459,-21.46748 7.03911,-18.30822 9.93963,-23.4649 13.19844,-23.4649 1.81286,0 12.88499,32.53095 12.88499,37.8573 0,1.54804 1.95852,4.58702 4.35227,6.75322 6.5501,5.92779 5.34388,7.61645 -5.44033,7.61645 -10.20019,0 -11.54773,-1.60076 -7.20333,-8.55719 3.50871,-5.61838 -0.91676,-10.90925 -8.45285,-10.10579 -7.87175,0.83928 -12.47883,9.63995 -7.77647,14.85478 3.22681,3.57862 2.75721,3.8082 -7.78394,3.8082 -6.16987,0 -11.21794,-0.86652 -11.21794,-1.92564 z m -45.69868,0.185 c 0,-0.95752 0.98488,-2.7256 2.18857,-3.92944 3.26209,-3.26203 3.36762,-34.86748 0.12956,-38.76917 -3.90566,-4.70604 -1.21655,-7.36598 6.80844,-6.7347 7.13276,0.5611 10.36343,3.9327 6.22128,6.49268 -2.9668,1.83359 -3.07614,38.15315 -0.115,38.15315 1.19688,0 2.17614,1.46888 2.17614,3.26418 0,2.35762 -2.41792,3.26418 -8.70452,3.26418 -4.78748,0 -8.70453,-0.7834 -8.70453,-1.74088 z M 65.283866,217.47139 c 0,-1.12638 0.979253,-2.65292 2.176121,-3.39282 2.998867,-1.85341 2.783511,-36.6043 -0.245623,-39.63343 -4.983155,-4.98316 -0.0356,-6.53896 16.359843,-5.1446 1.083139,0.092 0.3487,1.95832 -1.632094,4.14708 -2.687291,2.96939 -3.60148,8.18451 -3.60148,20.54478 0,9.11089 0.979254,17.17038 2.176137,17.91004 1.196867,0.73988 2.17612,2.75609 2.17612,4.48089 0,2.20744 -2.576367,3.13556 -8.704511,3.13556 -4.787484,0 -8.704513,-0.92138 -8.704513,-2.0475 z M 0,218.36357 c 0,-0.73248 1.4688795,-2.80046 3.2641875,-4.59576 3.8771026,-3.87713 4.6958448,-36.62972 0.9731867,-38.93045 -4.22283476,-2.60988 -0.7184002,-6.3376 6.2892818,-6.69004 7.620252,-0.38324 10.905985,2.5198 7.127987,6.2978 -1.384049,1.38407 -2.42174,10.05995 -2.42174,20.24771 0,17.43525 0.125613,17.85743 5.724124,19.26256 4.287256,1.0761 7.066283,0.1784 11.070714,-3.57225 l 5.346575,-5.00898 -0.734092,6.52826 -0.734095,6.52841 -17.953065,0.63214 C 8.07887,219.41051 0,219.09561 0,218.36357 Z m 398.12281,1.08828 c -1.40688,-0.86958 -1.00436,-3.6487 1.11788,-7.71829 3.40742,-6.5341 4.62621,-22.68502 1.71102,-22.67444 -0.89764,0.002 -5.05948,6.61327 -9.24853,14.68888 -4.18906,8.07564 -8.40123,14.68283 -9.36039,14.68283 -0.95916,0 -4.09168,-5.77635 -6.96115,-12.83661 -7.56934,-18.62392 -9.79201,-19.7897 -9.79201,-5.13599 0,6.75153 0.97927,12.88066 2.17615,13.62032 4.532,2.80112 1.8926,5.44032 -5.44033,5.44032 -7.45875,0 -10.61477,-4.4184 -5.44033,-7.61645 3.01121,-1.8609 2.74057,-30.11013 -0.3535,-36.90086 -3.1425,-6.89708 -1.53224,-8.70517 5.61451,-6.30426 4.05302,1.36158 7.81393,6.51548 14.06024,19.26782 l 8.52718,17.40904 8.38111,-17.9437 c 8.12673,-17.39914 13.89162,-23.11493 18.58234,-18.4242 1.41149,1.41148 1.33649,2.6474 -0.21906,3.60878 -3.09596,1.9134 -3.15836,37.4527 -0.0692,39.36204 1.26314,0.78056 1.98429,3.04179 1.60255,5.02467 -0.69915,3.63174 -10.39492,5.22729 -14.88858,2.4501 z M 126.16705,201.64839 c -3.94353,-11.11639 -8.58412,-21.86868 -10.31251,-23.89396 -4.53494,-5.31397 -2.45567,-8.78457 5.8047,-9.68887 6.77446,-0.74162 7.12395,-0.45402 5.80991,4.7815 -1.509,6.01237 6.778,32.11172 9.63533,30.34577 0.89771,-0.5548 3.87293,-6.52954 6.6116,-13.27725 3.95354,-9.74085 4.46624,-13.09027 2.48848,-16.25712 -3.16342,-5.06546 -0.50118,-6.71242 8.07708,-4.99678 7.74061,1.54812 8.05764,2.285 3.26255,7.58351 -1.91912,2.12062 -7.09964,12.90109 -11.51222,23.95662 -4.41258,11.05539 -9.07408,20.45128 -10.35891,20.87952 -1.28482,0.42828 -5.56251,-8.31651 -9.50601,-19.43294 z m 531.64868,153.61653 c 0.74264,-0.7427 5.97229,-2.21376 11.62145,-3.26918 22.67767,-4.23671 25.10415,-11.15528 26.45023,-75.41811 l 1.06114,-50.65941 26.36391,0.60846 26.3639,0.60866 1.08808,53.31514 c 0.78192,38.31446 1.8925,54.72574 3.9471,58.32808 3.67481,6.44287 15.18226,13.45634 22.16645,13.50942 2.99216,0.0218 6.90921,0.9908 8.70451,2.15088 2.14712,1.38774 -19.3874,2.12108 -62.92642,2.14284 -36.4048,0.0218 -65.58295,-0.57428 -64.84035,-1.31678 z m -122.92281,-8.98655 c -2.49827,-5.68513 -15.66318,-34.21614 -29.25539,-63.40215 -13.59218,-29.18623 -24.71307,-53.91252 -24.71307,-54.94726 0,-1.03496 12.08655,-1.8817 26.85897,-1.8817 h 26.85899 l 14.76973,34.27404 c 8.12333,18.8507 16.20106,37.09146 17.9505,40.53496 l 3.18077,6.26073 15.04097,-35.63846 c 19.8027,-46.92125 19.80334,-46.92255 20.87522,-43.97587 0.50886,1.39904 -3.12558,12.17087 -8.07654,23.93741 -26.07957,61.98204 -30.61006,72.80546 -36.9644,88.30993 -6.74537,16.45848 -7.09361,16.865 -14.44772,16.865 -6.90175,0 -7.91789,-0.86958 -12.07803,-10.33663 z m -206.29747,8.44361 c 0,-1.04128 4.20119,-2.36676 9.33595,-2.94539 18.39374,-2.0732 35.13018,-13.83301 42.23031,-29.67283 2.76446,-6.16736 3.75702,-17.32678 4.47898,-50.35779 0.51011,-23.33899 1.67365,-43.22009 2.58569,-44.18043 0.91204,-0.96054 2.34512,17.15574 3.18466,40.2584 0.8395,23.10243 2.55208,45.90455 3.80571,50.6716 4.72758,17.97678 28.66851,33.7672 51.19655,33.7672 3.97182,0 7.22147,0.97926 7.22147,2.17612 0,1.39992 -22.12397,2.17614 -62.01965,2.17614 -34.11084,0 -62.01967,-0.85174 -62.01967,-1.89302 z m -119.0608,0.54142 c 0.74342,-0.74336 9.21845,-2.14478 18.8334,-3.11404 12.48689,-1.25869 20.59914,-3.45895 28.39251,-7.70065 17.57058,-9.56323 33.04809,-32.71464 43.5121,-65.08629 2.70821,-8.37809 5.78207,-16.1632 6.83081,-17.30022 2.25594,-2.44574 2.53224,37.95538 0.48804,71.36505 l -1.41874,23.18775 h -48.99489 c -26.94721,0 -48.38663,-0.60824 -47.64323,-1.3516 z M 30.465805,354.43886 c 1.795308,-1.16008 5.516154,-2.12434 8.268543,-2.14262 7.988896,-0.0522 17.459679,-6.05745 21.564369,-13.67108 3.198907,-5.93343 3.971608,-15.21616 4.933141,-59.26274 l 1.140078,-52.22708 26.657575,-0.61084 26.657579,-0.61108 0.0946,47.39783 c 0.0523,26.06873 0.92028,51.6711 1.92922,56.89402 2.74072,14.1875 9.51853,19.687 27.38099,22.21677 8.2181,1.16378 15.40938,2.58328 15.98055,3.15452 0.57119,0.57122 -30.21611,1.02364 -68.416227,1.00514 -45.646304,-0.0218 -68.335748,-0.75642 -66.190472,-2.14284 z"
     inkscape:connector-curvature="0" />
</svg>
